<svg width="56" height="51" viewBox="0 0 56 51" fill="none" xmlns="http://www.w3.org/2000/svg">
<g opacity="0.9">
<path d="M23 50.5695V46.1575L26.901 48.2661L30.8021 46.1575V50.5695L26.901 48.3554L23 50.5695Z" fill="black"/>
<path d="M38.5959 18.0195L38.2332 34.4773C38.2332 34.4773 36.1776 37 28.0765 37C20.0962 37 18.8266 34.1169 18.8266 34.1169L18.5244 18.9805C18.9476 18.9805 18.1616 19.0406 18.5244 18.9805C14.2319 19.0406 10 15.6169 10 11.3523C10 7.08766 13.5065 3.6039 17.7989 3.6039C18.8871 3.6039 19.9753 3.84416 20.9426 4.26461C22.2122 1.74188 24.9327 0 27.9556 0C30.8575 0 33.2153 1.62175 34.6058 3.96429C35.8754 3.00325 37.4472 2.52273 39.2005 2.52273C43.4929 2.52273 46.9993 5.94643 46.9993 10.2711C47.0598 14.5357 42.9488 18.0195 38.5959 18.0195C38.9586 18.0195 38.3541 18.0195 38.5959 18.0195Z" fill="white"/>
<path d="M9.90747 21.6009C9.90747 21.043 9.85676 20.5866 9.80604 20.333C9.70461 19.7244 9.40031 19.1665 8.89314 18.7101C8.38597 18.2536 7.82809 18.0508 7.11806 18.0508C6.40803 18.0508 5.74871 18.3043 5.24155 18.8115C4.68366 18.3043 4.07506 18.0508 3.36503 18.0508C2.70572 18.0508 2.0464 18.3043 1.58995 18.7101C1.1335 19.1158 0.778485 19.623 0.626335 20.333C0.575619 20.6373 0.524902 21.043 0.524902 21.6009V25.9626C0.524902 26.2161 0.727769 26.3176 0.879918 26.3176C1.1335 26.3176 1.23493 26.1147 1.23493 25.9626V21.4488C1.23493 20.6373 1.38708 19.978 1.7421 19.4708C2.09712 18.9129 2.655 18.6594 3.41575 18.6594C3.97363 18.6594 4.43008 18.8622 4.83581 19.268C4.4808 19.8766 4.32865 20.5359 4.32865 21.4488V25.9118C4.32865 26.1147 4.4808 26.2669 4.68366 26.2669C4.93725 26.2669 5.03868 26.064 5.03868 25.9118V21.3981C5.03868 20.7387 5.14011 20.2316 5.29226 19.8766C5.44441 20.2823 5.54585 20.8909 5.54585 21.6009V25.9626C5.54585 26.1654 5.69799 26.3176 5.90086 26.3176C6.15444 26.3176 6.25588 26.1147 6.25588 25.9626V21.2966C6.25588 20.3837 6.10373 19.7244 5.74871 19.2172C6.10373 18.8622 6.56018 18.6594 7.11806 18.6594C7.62523 18.6594 8.08168 18.8115 8.43669 19.1158C8.79171 19.3694 9.04529 19.7751 9.19744 20.2823C9.29887 20.5866 9.29887 20.9416 9.29887 21.4488V25.9626C9.29887 26.1654 9.45102 26.3176 9.65389 26.3176C9.90747 26.3176 10.0089 26.1147 10.0089 25.9626L9.95819 25.709V21.6009H9.90747Z" fill="black"/>
<path d="M18.1236 19.3186C17.3121 18.5071 16.2978 18.1014 15.1313 18.1014C13.9648 18.1014 12.9505 18.5071 12.139 19.3186C11.3275 20.1301 10.9218 21.1444 10.9218 22.3109C10.9218 23.4774 11.3275 24.4917 12.1897 25.3032C13.0519 26.1146 14.0662 26.5204 15.2327 26.5204C16.0949 26.5204 16.9064 26.2668 17.5657 25.8103V25.9118C17.5657 26.2668 17.7685 26.3682 17.9207 26.3682C18.0728 26.3682 18.2757 26.2161 18.2757 25.9118V25.2524C19.0872 24.3903 19.4929 23.4267 19.4929 22.3109C19.3915 21.0937 18.935 20.0794 18.1236 19.3186ZM17.4642 22.3616V24.9989C16.7542 25.6075 15.9935 25.9118 15.1313 25.9118C14.1677 25.9118 13.3055 25.5567 12.6462 24.8467C11.9361 24.1874 11.6318 23.3759 11.6318 22.3616C11.6318 21.3473 11.9869 20.5358 12.6969 19.8258C13.4069 19.1157 14.2184 18.7607 15.2327 18.7607C16.1963 18.7607 17.0585 19.1157 17.7178 19.8258C18.3771 20.5358 18.7829 21.3473 18.7829 22.3109C18.7829 23.0209 18.58 23.6295 18.225 24.1874V22.3616C18.1236 21.8544 17.4642 21.8544 17.4642 22.3616Z" fill="black"/>
<path d="M23.9559 26.5204C24.9195 26.5204 25.8324 26.2161 26.6439 25.5568C26.8468 25.4046 26.9989 25.3032 27.1003 25.1511H27.1511V25.1003C27.2018 25.0496 27.2018 24.9989 27.2018 24.8975C27.2018 24.7453 27.1003 24.5932 26.8975 24.5932H26.6946L26.6439 24.6946V24.796C26.2889 25.1003 25.8831 25.4046 25.4774 25.6075C25.021 25.8104 24.5138 25.9625 24.0574 25.9625C23.043 25.9625 22.2316 25.6075 21.5722 24.8975C20.8622 24.1874 20.5072 23.376 20.5072 22.3617C20.5072 21.398 20.8622 20.5359 21.5722 19.8765C22.2316 19.1665 23.043 18.8622 24.0574 18.8622C25.021 18.8622 25.8831 19.2172 26.5932 19.9273L26.7453 20.0287H26.9482L26.9989 19.978C27.1003 19.9273 27.1511 19.8258 27.1511 19.7244V19.623L27.1003 19.5722C27.1003 19.5722 27.1003 19.5215 27.0496 19.5215C26.9989 19.4708 26.9989 19.4201 26.9482 19.4201C26.1874 18.6086 25.1731 18.1522 23.9559 18.1522C22.7894 18.1522 21.7751 18.5579 20.9636 19.3694C20.1522 20.1808 19.7464 21.1952 19.7464 22.3617C19.7464 23.4774 20.1522 24.4917 20.9636 25.3539C21.8258 26.1147 22.8402 26.5204 23.9559 26.5204Z" fill="black"/>
<path d="M34.4036 19.3186C33.5922 18.5071 32.5778 18.1014 31.4114 18.1014C30.2449 18.1014 29.2305 18.5071 28.4191 19.3186C27.6076 20.1301 27.2019 21.1444 27.2019 22.3109C27.2019 23.4774 27.6076 24.4917 28.4191 25.3032C29.2813 26.1146 30.2956 26.5204 31.4621 26.5204C32.3243 26.5204 33.1357 26.2668 33.795 25.8103V25.9118C33.795 26.2668 33.9979 26.3682 34.1501 26.3682C34.3022 26.3682 34.5051 26.2161 34.5051 25.9118V25.2524C35.3165 24.3903 35.7223 23.4267 35.7223 22.3109C35.6716 21.043 35.2658 20.0794 34.4036 19.3186ZM33.7443 22.3616V24.9989C33.0343 25.6075 32.2735 25.9118 31.4114 25.9118C30.4477 25.9118 29.5856 25.5567 28.8755 24.8467C28.1655 24.1874 27.8612 23.3759 27.8612 22.3616C27.8612 21.3473 28.2162 20.5358 28.9262 19.8258C29.6363 19.1157 30.4477 18.7607 31.4621 18.7607C32.4257 18.7607 33.2879 19.1157 33.9472 19.8258C34.6572 20.5358 35.0122 21.3473 35.0122 22.3109C35.0122 23.0209 34.8094 23.6802 34.4544 24.2381V22.4123C34.4036 21.8544 33.7443 21.8544 33.7443 22.3616Z" fill="black"/>
<path d="M36.7366 26.3682C36.9902 26.3682 37.0917 26.1653 37.0917 26.0132V22.7166C37.0917 21.8544 37.1424 21.3472 37.2438 20.9922C37.396 20.4343 37.7003 19.9779 38.106 19.6229C38.5117 19.2679 38.9682 19.065 39.4753 18.9128C39.7289 18.9128 39.8304 18.71 39.8304 18.5578C39.8304 18.3042 39.6782 18.2535 39.5768 18.2028H39.4753C39.2218 18.2028 38.9175 18.3042 38.5624 18.5071C37.9538 18.8114 37.4467 19.2171 37.0917 19.775C37.0917 19.4707 37.0917 19.065 37.0917 18.6085C37.0917 18.1014 36.3816 18.1014 36.3816 18.6085V26.0132C36.3816 26.216 36.5338 26.3682 36.7366 26.3682Z" fill="black"/>
<path d="M47.1841 19.3186C46.3726 18.5071 45.3583 18.1014 44.1918 18.1014C43.0253 18.1014 42.011 18.5071 41.1995 19.3186C40.388 20.1301 39.9823 21.1444 39.9823 22.3109C39.9823 23.4774 40.388 24.4917 41.1995 25.3032C42.0617 26.1146 43.076 26.5204 44.2425 26.5204C45.409 26.5204 46.4233 26.1146 47.2348 25.2524C48.0463 24.3903 48.452 23.3759 48.452 22.2095C48.452 21.0937 48.0462 20.0794 47.1841 19.3186ZM44.1918 18.7607C45.1554 18.7607 46.0176 19.1157 46.6769 19.8258C47.3869 20.5358 47.742 21.3473 47.742 22.3109C47.742 23.3252 47.3869 24.1874 46.6262 24.8467C45.9669 25.5567 45.1554 25.861 44.1411 25.861C43.1775 25.861 42.3153 25.506 41.656 24.796C40.9459 24.086 40.5909 23.2745 40.5909 22.3109C40.5909 21.2966 40.9459 20.4851 41.656 19.7751C42.3153 19.065 43.1775 18.7607 44.1918 18.7607Z" fill="black"/>
<path d="M55.0452 20.2315C54.9438 19.6229 54.6395 19.1158 54.0816 18.6593C53.5744 18.2536 52.9658 18 52.3065 18C51.7993 18 51.3429 18.1014 50.9371 18.355C50.6328 18.5579 50.3285 18.7608 50.1257 19.0651V18.5579C50.1257 18.0507 49.4156 18.0507 49.4156 18.5579V25.9625C49.4156 26.2161 49.6185 26.3175 49.7707 26.3175C50.0243 26.3175 50.1257 26.1147 50.1257 25.9625V21.753C50.1257 21.2966 50.1257 20.8908 50.1764 20.688C50.2778 20.0794 50.4807 19.6229 50.8357 19.2679C51.2414 18.9129 51.7486 18.71 52.2558 18.71C52.6615 18.71 53.0672 18.8115 53.3715 19.0143C53.828 19.2679 54.1323 19.6736 54.2337 20.1808C54.3352 20.4851 54.3352 21.043 54.3352 21.753V25.9625C54.3352 26.1654 54.4873 26.3175 54.6902 26.3175C54.7916 26.3175 54.893 26.2668 54.9438 26.2161H55.0959V21.398C55.1466 20.9416 55.0959 20.5358 55.0452 20.2315Z" fill="black"/>
<path d="M16.3991 36.1058C16.0441 36.1058 15.9934 36.3087 15.9934 36.4608C15.9934 36.7144 16.1962 36.8158 16.3484 36.8158C16.7541 36.8158 17.0584 36.9173 17.4134 37.1201C18.0727 37.4751 18.4278 38.0837 18.4278 38.8445C18.4278 39.4024 18.2249 39.8588 17.8192 40.2646C17.4134 40.6703 16.957 40.8732 16.3991 40.8732C15.5876 40.8732 15.0298 40.5181 14.5733 39.8081C14.4212 39.6052 14.3197 39.3009 14.3197 38.9459C14.3197 38.6923 14.1676 38.5402 13.9647 38.5402C13.7111 38.5402 13.6097 38.7431 13.6097 38.8952C13.6097 39.6052 13.914 40.2646 14.4719 40.721C14.979 41.2282 15.6383 41.4818 16.3484 41.4818C17.1091 41.4818 17.7684 41.2282 18.2756 40.6703C18.7828 40.1631 19.0871 39.5038 19.0871 38.7431C19.0871 37.9823 18.8335 37.3737 18.3263 36.8666C17.8192 36.4101 17.1598 36.1058 16.3991 36.1058Z" fill="black"/>
<path d="M16.247 33.9757C16.9063 33.9757 17.3628 34.2293 17.6671 34.7872C17.7178 34.8886 17.8192 35.0915 17.8699 35.2943C17.8699 35.5479 18.0221 35.7001 18.2249 35.7001C18.4278 35.7001 18.58 35.5479 18.58 35.3451C18.58 34.7365 18.2757 34.2293 17.7685 33.925C17.312 33.5193 16.8049 33.3164 16.1963 33.3164C15.5877 33.3164 15.0298 33.5193 14.5734 33.9757C14.1676 34.4829 13.914 34.99 13.914 35.5986C13.914 36.2072 14.1169 36.7651 14.5734 37.2216C14.9791 37.678 15.537 37.9316 16.1456 37.9316C16.3991 37.9316 16.5513 37.7794 16.5513 37.5766C16.5513 37.3737 16.3991 37.2216 16.1963 37.2216C15.7398 37.2216 15.3848 37.0694 15.0805 36.7651C14.7762 36.4608 14.6241 36.0551 14.6241 35.5986C14.6241 35.1422 14.7762 34.7364 15.0805 34.4321C15.4862 34.1278 15.8413 33.9757 16.247 33.9757Z" fill="black"/>
<path d="M25.2238 36.7144C25.2238 36.1565 25.1731 35.7508 25.1224 35.4972C24.9702 34.8379 24.6659 34.3307 24.2095 33.9757C23.7023 33.5193 23.1951 33.3164 22.5358 33.3164C22.0794 33.3164 21.6229 33.4178 21.2172 33.6714C20.8622 33.8236 20.6086 34.0771 20.4057 34.3307V31.2877C20.4057 30.7806 19.6957 30.7806 19.6957 31.2877V40.9746C19.6957 41.2282 19.8985 41.3296 20.0507 41.3296C20.3043 41.3296 20.4057 41.1267 20.4057 40.9746V36.9173C20.4057 36.613 20.4057 36.3594 20.4564 36.1565C20.4564 36.0044 20.4564 35.9029 20.4564 35.8522C20.5579 35.2943 20.7607 34.8379 21.1157 34.4829C21.5215 34.1278 21.9272 33.9757 22.5358 33.9757C22.9415 33.9757 23.3473 34.0771 23.6516 34.28C24.108 34.5843 24.3616 34.9393 24.463 35.3958C24.5645 35.7001 24.5645 36.2072 24.5645 36.9173V40.9746C24.5645 41.1775 24.7166 41.3296 24.9195 41.3296C25.1731 41.3296 25.2745 41.1267 25.2745 40.9746L25.2238 40.721V36.7144Z" fill="black"/>
<path d="M33.0341 34.4829C32.2227 33.6715 31.2591 33.2657 30.1433 33.2657C29.0275 33.2657 28.0132 33.6715 27.2524 34.4829C26.441 35.2944 26.0352 36.258 26.0352 37.3738C26.0352 38.4896 26.441 39.5039 27.2524 40.2646C28.0639 41.0761 29.0275 41.4818 30.194 41.4818C31.3605 41.4818 32.3241 41.0761 33.0849 40.2646C33.8963 39.4532 34.3021 38.4896 34.3021 37.3231C34.3021 36.1566 33.8963 35.2437 33.0341 34.4829ZM27.7089 39.8082C27.0496 39.1489 26.6946 38.3374 26.6946 37.3738C26.6946 36.4102 27.0496 35.5987 27.7089 34.8887C28.3682 34.2294 29.1797 33.8743 30.194 33.8743C31.1069 33.8743 31.9691 34.2294 32.6284 34.8887C33.2877 35.548 33.6427 36.3595 33.6427 37.3231C33.6427 38.2867 33.2877 39.1489 32.5777 39.8082C31.9184 40.4675 31.1069 40.8225 30.1433 40.8225C29.2304 40.8225 28.3682 40.4675 27.7089 39.8082Z" fill="black"/>
<path d="M39.0695 33.2657C37.903 33.2657 36.9394 33.6715 36.1786 34.4829C35.4179 35.2944 34.9614 36.258 34.9614 37.3738C34.9614 38.4896 35.3672 39.4532 36.1279 40.2646V43.5612C36.1279 43.7641 36.2801 43.9162 36.4829 43.9162C36.7365 43.9162 36.8379 43.7134 36.8379 43.5612V40.8732C37.4972 41.3297 38.258 41.5326 39.0695 41.5326C40.2359 41.5326 41.2503 41.1268 42.011 40.3661C42.8225 39.5546 43.2789 38.6417 43.2789 37.4752C43.2789 36.3087 42.8225 35.3451 42.011 34.5337C41.1996 33.6715 40.2359 33.2657 39.0695 33.2657ZM36.4829 37.0188C36.3308 37.0188 36.1279 37.1709 36.1279 37.4245V39.1489C35.8236 38.6417 35.6715 38.0331 35.6715 37.3738C35.6715 36.4609 36.0265 35.5987 36.6858 34.9394C37.3958 34.2294 38.2073 33.9251 39.1709 33.9251C40.1345 33.9251 40.946 34.2801 41.656 34.9394C42.3153 35.5987 42.6703 36.4102 42.6703 37.4245C42.6703 38.3881 42.3153 39.1996 41.6053 39.8589C40.946 40.5182 40.1345 40.8732 39.1709 40.8732C38.3087 40.8732 37.548 40.5689 36.8886 39.9603V37.4245C36.8379 37.0695 36.6351 37.0188 36.4829 37.0188Z" fill="black"/>
</g>
</svg>
